<svg xmlns="http://www.w3.org/2000/svg" viewBox="0 0 1333.3333 294.444" width="210">
    <defs>
        <clipPath id="a" clipPathUnits="userSpaceOnUse">
            <path d="M0 220.833h1000V0H0z"></path>
        </clipPath>
        <clipPath id="b" clipPathUnits="userSpaceOnUse">
            <path d="M4.99142 217.758H224.273V3.41783H4.99142z"></path>
        </clipPath>
        <clipPath id="c" clipPathUnits="userSpaceOnUse">
            <path d="M217.68 93.403c-.313-.29-1.164-.907-2.338-.405l-18.276 7.832c-5.46 2.341-8.869 7.69-8.682 13.629l1.59 50.902c.051 1.639 1.314 2.005 1.854 2.086.106.016.24.029.392.029.632 0 1.563-.23 1.992-1.477l24.047-70.295c.413-1.208-.267-2.011-.579-2.301m-1.469-13.833L166.09 25.532c-1.086-1.165-2.258-.658-2.715-.385-.456.274-1.459 1.072-.938 2.577l22.059 63.899v.002c.54 1.566 1.675 2.799 3.189 3.47.77.341 1.582.511 2.391.511.789 0 1.577-.161 2.328-.483l1.873-.803.002-.001 18.272-7.831h.002l4.368-1.873c.936-.401 1.201-1.217 1.274-1.549.029-.139.05-.382.027-.66-.543-1.012-1.207-1.97-2.011-2.836m-66.608-67.315c-.336-.978-1.145-1.297-1.477-1.388-.339-.092-1.195-.232-1.984.432l-9.004 7.575c-.003.003-.006.007-.009.01L85.933 61.953c-.877.741-.809 1.692-.737 2.069.071.376.355 1.292 1.444 1.659l2.817.95s.004.001.007.001l83.455 28.121.009.003 1.635.551c1.171.391 1.955-.241 2.24-.53.289-.29.914-1.088.515-2.244zm-16.451-1.349c-.2-.45-.832-1.49-2.3-1.262l-61.711 9.023-20.696 3.026c-.339.049-.663.145-.994.219-.81.292-1.18.936-1.296 1.244-.139.358-.375 1.289.367 2.175l7.943 9.46 17.58 20.932.006.009 1.318 1.571c.785.933 1.884 1.506 3.099 1.611.133.011.268.017.401.017 1.07 0 2.095-.373 2.925-1.071l1.58-1.328v-.001l51.203-43.075c1.125-.953.777-2.1.575-2.55M41.256 30.075c-.749-.895-1.717-.814-2.097-.733-.352.071-1.147.362-1.541 1.278-.062.176-.146.34-.202.519l-25.23 81.948c-.441 1.43.489 2.208.908 2.476.235.148.676.372 1.21.372.431 0 .924-.145 1.419-.592l47.888-43.252.002-.001 2.34-2.114c2.81-2.538 3.103-6.795.67-9.695l-2.483-2.957zM11.921 130.628c.177 1.307.956 2.394 2.135 2.983l13.553 6.776 57.643 28.821c.572.287 1.174.428 1.77.428.828 0 1.644-.271 2.351-.804 1.216-.918 1.773-2.36 1.492-3.857v-.001L74.848 79.539c-.384-2.042-1.948-2.777-2.606-2.998-.647-.22-2.34-.589-3.881.804l-47.887 43.253s-.003.003-.005.004l-7.29 6.584c-.977.883-1.435 2.138-1.258 3.442m9.848 19.403l46.35 57.839c.805 1 1.734 1.859 2.752 2.578.153.026.291.041.398.041.037 0 .07-.002.07-.002.364-.018 1.199-.147 1.747-.988l11.071-16.99 3.065-4.706c1.228-1.884 1.576-4.115.99-6.285-.59-2.173-2.022-3.922-4.035-4.929l-2.08-1.039-.013-.006-57.643-28.821c-1.413-.707-2.336.169-2.667.578-.332.41-.993 1.496-.005 2.73m60.216 61.2c.209.314.767.976 1.761.976.138 0 .288-.013.445-.042l9.628-1.768 63.338-11.634c1.593-.296 1.776-1.587 1.778-2.127.002-.542-.161-1.837-1.758-2.15l-8.915-1.747-44.233-8.673c-3.182-.629-6.393.727-8.168 3.452l-2.702 4.147-.005.008-3.063 4.702-8.118 12.461v.001c-.708 1.083-.228 2.035.012 2.394m91.428-106.638c-.141-.708-.694-2.431-2.746-3.126L87.189 73.339c-2.032-.676-3.511.338-4.052.808-.541.471-1.759 1.796-1.36 3.914l.033.171v.001l1.874 9.994 13.91 74.197c.386 2.056 1.794 3.689 3.771 4.371.628.217 1.267.321 1.901.321 1.359 0 2.685-.49 3.756-1.428l64.934-57.036c.001 0 .001 0 .001-.001l.121-.106c1.632-1.434 1.478-3.242 1.335-3.952m6.826 87.198c1.167.232 1.994-.29 2.383-.623.39-.331 1.041-1.065 1.004-2.256l-2.278-72.893c-.05-1.626-1.213-2.304-1.711-2.519-.498-.214-1.786-.6-3.005.472l-64.926 57.03c-.004.004-.008.006-.012.009l-2.489 2.187c-1.202 1.055-1.009 2.363-.87 2.878.138.512.63 1.74 2.197 2.046l2.11.414 45.899 8.999s.008.002.012.004zm37.881-79.598c-3.367 9.857-6.586 19.404-10.471 29.076-.24.599-.342 1.156-.385 1.691-.684.466-1.303 1.121-1.78 2.052-3.919 7.645-5.676 16.515-8.853 24.53-3.44 8.68-4.94 17.847-9.324 26.008-.434-.067-.87-.13-1.312-.122-3.809.068-7.259 1.192-10.591 2.997-1.851 1.003-3.595 2.181-5.454 3.163-.604-.283-1.27-.494-2.034-.566-8.423-.786-17.522 3.956-26.015 4.827-4.694.481-9.625.622-14.18 2.008-4.175 1.27-7.852 3.4-12.197 4.217-.026.005-.047.016-.072.022-1.242-1.441-3.148-2.278-5.538-1.643-17.078 4.539-36.581 14.974-49.51-2.229-.434-.578-.933-1.012-1.457-1.374.914-1.87.817-4.104-1.308-5.895-8.525-7.181-16.013-15.341-21.797-24.898-.193-.32-.413-.589-.636-.849-.14-.58-.354-1.169-.735-1.769-4.359-6.858-9.79-13.155-15.373-19.043-4.73-4.986-11.034-8.796-12.975-15.745-.249-.892-.641-1.623-1.132-2.206.608-.864.967-1.966.838-3.377-.595-6.581-.252-13.502.941-20.013 1.121-6.116 4.702-11.096 6.211-16.99.304-1.192.228-2.256-.079-3.191 1.551-5.611 3.998-11.197 5.938-16.632 1.172-3.282 2.04-6.744 3.557-9.88 1.406-2.909 3.142-5.398 3.924-8.573.549-2.226-.14-4.051-1.401-5.298 1.497-4.11 3.056-8.193 4.617-12.307 2.425-6.388 3.423-12.95 7.904-18.267.459-.545.775-1.115 1.001-1.692 1.358.496 2.942.465 4.571-.405 3.588-1.915 6.297-3.993 10.439-4.622 3.923-.595 8.031-.344 11.979-.33.719.002 1.345-.131 1.924-.325.505.06 1.035.07 1.594-.005 19.011-2.561 38.11-8.109 57.2-9.645 1.28-.102 2.345-.677 3.235-1.441 3.932-.14 8.046.194 11.726.194.424 0 .817-.047 1.193-.118 6.847 2.695 12.998 4.7 18.577 10.126 6.206 6.039 12.033 12.449 18.282 18.447.18.454.414.912.763 1.373 5.78 7.627 11.825 15.192 18.665 21.905 5.943 5.832 12.955 10.43 17.242 17.743.678 1.156 1.562 1.901 2.528 2.326.233.887.664 1.767 1.485 2.574 9.243 9.088 1.682 24.193-1.725 34.171"></path>
        </clipPath>
        <clipPath id="e" clipPathUnits="userSpaceOnUse">
            <path d="M62.583 212.291l-11.044-13.782s-.003-.001-.004-.002l-18.442-23.016-27.51-34.328c-4.282-5.339-5.634-12.436-3.62-18.978l13.17-42.767 8.99-29.202c.001-.005.003-.01.005-.015l6.519-21.169c.012-.039.034-.072.047-.111.312-1.18 1.588-5.181 4.975-8.696.309-.381.63-.755 1.004-1.084.224-.198.488-.334.73-.506 2.636-2.115 6.223-3.798 11.109-4.117l92.307-13.497c.998-.145 1.994-.216 2.988-.216 5.696 0 11.193 2.359 15.128 6.603l62.479 67.36c5.174 5.578 6.859 13.517 4.397 20.716l-3.938 11.508v.001L195.07 185.34c-.001.002-3.694 15.053-15.335 16.469l-1.533.281-.004.001-17.187 3.158-66.713 12.254-.014.001-11.866 2.18c-1.253.232-2.509.345-3.755.345-6.193 0-12.124-2.798-16.08-7.738m83.838-42.51l-54.424 38.328c-.733.515-.658 1.168-.465 1.624.165.397.499.835 1.165.835.097 0 .202-.009.314-.029l26.129-4.799 57.801-10.618c1.044-.194 2.038-.525 2.987-.944.006-.016.023-.033.03-.048.075-.215.11-.536-.155-.85l-.117-.138c-.001-.002-.004-.004-.006-.006l-13.052-15.471-4.998-5.923c-2.247-2.664-5.431-4.054-8.659-4.054-2.264 0-4.55.684-6.55 2.093m-72.058 39.697c1.503.463 3.095.205 4.381-.699l60.886-42.878c1.585-1.117 2.365-2.93 2.087-4.851-.282-1.92-1.547-3.434-3.39-4.05l-2.204-.738-.002-.001-31.945-10.7L50 127.414c-1.892-.635-3.847-.152-5.236 1.285-1.382 1.44-1.785 3.414-1.081 5.281l7.971 21.049 13.518 35.693c.001.003.002.006.002.01l5.95 15.711v-.002c.558 1.47 1.738 2.577 3.239 3.037m-49.845-83.211l-10.627 4.612-.544.236c-1.201.521-2.07 1.548-2.384 2.818-.315 1.271-.025 2.585.795 3.606l26.863 33.524 18.446 23.017c.097.124.287.358.615.358.136 0 .297-.042.487-.149.629-.361.467-.829.387-1.043l-13.523-35.709-10.188-26.904c-.758-2.001-2.261-3.56-4.233-4.392-.972-.411-1.994-.617-3.016-.617-1.043 0-2.086.214-3.078.643m188.456-22.894l-17.024 18.026-28.103 29.757c-.003.003-.006.005-.009.008l-2.342 2.48-.002.001c-2.97 3.146-3.109 8.011-.317 11.319l2.526 2.993 17.396 20.617c.204.235.44.304.639.304.063 0 .123-.007.179-.017.036-.006.078-.037.118-.048.501-.826.943-1.697 1.263-2.632l27.876-81.48c.282-.827-.153-1.301-.565-1.55-.202-.121-.451-.221-.721-.221-.29 0-.605.115-.914.443m-95.661-58.414L61.63 97.204l-11.584 10.87c-1.982 1.859-2.819 4.554-2.238 7.209.581 2.654 2.464 4.755 5.041 5.616l53.577 17.947 31.946 10.7c.81.272 1.636.404 2.456.404 1.821 0 3.597-.659 5.024-1.917 2.069-1.821 2.984-4.524 2.449-7.225l-10.388-52.173-7.88-39.582c-.552-2.764-2.483-4.928-5.167-5.788-.785-.253-1.584-.376-2.373-.376-1.895 0-3.73.714-5.18 2.07m20.412-4.925c-.465.333-1.952 1.59-1.509 3.812l16.562 83.186 2.466 12.388v.002l.998 5.013.002.001c.279 1.413 1.275 2.494 2.658 2.893.36.104.722.154 1.077.154 1.017 0 1.985-.415 2.718-1.191l.17-.179 53.992-57.17c.798-.843 1.161-1.985.993-3.133-.166-1.15-.836-2.143-1.837-2.727l-20.19-11.768-54.001-31.473c-.675-.392-1.315-.531-1.885-.531-1.083 0-1.907.503-2.214.723M30.895 52.29l-6.483 21.056-15.525 50.428c-.136.437.059.729.248.899.13.115.319.23.561.23.11 0 .23-.024.361-.081l15.039-6.525c3.282-1.425 5.48-4.656 5.597-8.232l.203-6.182c0-.005-.001-.011-.001-.017v-.001l1.69-51.303c.007-.235.005-.737-.723-.861-.073-.011-.14-.016-.202-.016-.551 0-.702.407-.765.605m11.876-28.373c-.769.522-1.474 1.128-2.121 1.795-.037.155-.106.3-.11.463l-.877 26.628c-.002.005 0 .009 0 .014l-1.688 51.287c-.044 1.435.964 2.051 1.4 2.247.443.197 1.568.552 2.618-.433l33.773-31.689 36.688-34.424.003-.002 5.126-4.81c1.015-.951.778-2.074.628-2.512-.151-.437-.648-1.472-2.034-1.605l-27.762-2.661-15.276-1.463-.005-.002-29.978-2.874c-.016-.001-.033-.002-.049-.002-.116 0-.222.035-.336.043M206.979 69.62h.001l-.001-.002zM148.081 9.588c-.184.013-.444.085-.641.356l-3.018 4.171c-.003.004-.005.01-.009.014l-7.591 10.491c-.536.75-.728 1.66-.535 2.562.191.91.74 1.668 1.543 2.136l7.559 4.406.002.001 19.367 11.287 35.411 20.637c.191.114.652.38 1.115-.213.465-.593.099-.973-.057-1.136L148.768 9.852c-.203-.214-.439-.267-.619-.267-.024 0-.047.001-.068.003m-10.233-.974l-64.077 9.369c-.245.036-.759.11-.739.876.019.765.53.818.781.842l7.556.724 42.603 4.083c.216.021.433.031.65.031 2.187 0 4.28-1.053 5.575-2.844h.002l.887-1.226c.003-.005.003-.009.007-.014l.002-.001 7.581-10.476c.224-.308.237-.63.038-.956-.168-.28-.404-.42-.708-.42-.051 0-.104.004-.158.012"></path>
        </clipPath>
        <linearGradient id="d" x1="0" x2="1" y1="0" y2="0" gradientTransform="matrix(225.85056 0 0 -225.85056 1.0607833 110.58813)" gradientUnits="userSpaceOnUse" spreadMethod="pad">
            <stop offset="0" stop-color="#e32e41"></stop>
            <stop offset=".31696322" stop-color="#e32e41"></stop>
            <stop offset="1" stop-color="#fb621f"></stop>
        </linearGradient>
        <linearGradient id="f" x1="0" x2="1" y1="0" y2="0" gradientTransform="matrix(225.87764 0 0 -225.87764 1.0472704 110.41666)" gradientUnits="userSpaceOnUse" spreadMethod="pad">
            <stop offset="0" stop-color="#e32e41"></stop>
            <stop offset=".31696322" stop-color="#e32e41"></stop>
            <stop offset="1" stop-color="#fb621f"></stop>
        </linearGradient>
    </defs>
    <g clip-path="url(#a)" transform="matrix(1.33333 0 0 -1.33333 0 294.444)">
        <path fill="#fff" d="M302.5549 153.5842c0 1.305 1.172 2.482 2.476 2.482h5.219c1.304 0 2.476-1.177 2.476-2.482v-86.341c0-1.304-1.172-2.476-2.476-2.476h-5.219c-1.304 0-2.476 1.172-2.476 2.476zM352.3667 155.0215c0 1.305 1.172 2.349 2.476 2.349h3.262l58.817-73.3h.265v69.514c0 1.304 1.04 2.482 2.477 2.482h4.566c1.305 0 2.477-1.178 2.477-2.482v-87.773c0-1.304-1.172-2.349-2.477-2.349h-2.349l-59.868 74.732h-.127v-70.951c0-1.305-1.045-2.477-2.476-2.477h-4.567c-1.304 0-2.476 1.172-2.476 2.477zM466.3293 155.0215c0 1.305 1.172 2.349 2.476 2.349h3.262l58.817-73.3h.265v69.514c0 1.304 1.04 2.482 2.477 2.482h4.566c1.305 0 2.477-1.178 2.477-2.482v-87.773c0-1.304-1.172-2.349-2.477-2.349h-2.349l-59.868 74.732h-.127v-70.951c0-1.305-1.045-2.477-2.476-2.477h-4.567c-1.304 0-2.476 1.172-2.476 2.477zM580.292 153.5842c0 1.305 1.039 2.482 2.476 2.482h51.388c1.432 0 2.477-1.177 2.477-2.482v-3.781c0-1.305-1.045-2.476-2.477-2.476h-43.825v-31.825h37.435c1.304 0 2.476-1.172 2.476-2.476v-3.787c0-1.432-1.172-2.477-2.476-2.477h-37.435v-33.255h43.825c1.432 0 2.477-1.178 2.477-2.483v-3.781c0-1.304-1.045-2.476-2.477-2.476h-51.388c-1.437 0-2.476 1.172-2.476 2.476zM706.1346 109.1121c10.039 0 18.778 8.347 18.778 19.044 0 9.911-8.739 18.386-18.778 18.386h-25.307v-37.43zm-35.605 44.472c0 1.305 1.039 2.482 2.476 2.482h33.781c15.65 0 28.43-12.261 28.43-27.783 0-11.996-7.954-22.04-19.303-26.606l17.872-33.129c.912-1.691 0-3.781-2.223-3.781h-6.65c-1.172 0-1.824.652-2.084 1.172l-17.346 34.566h-24.915v-33.262c0-1.304-1.172-2.476-2.476-2.476h-5.086c-1.437 0-2.476 1.172-2.476 2.476zM810.1915 157.371c13.173 0 22.692-4.566 31.559-12.134 1.045-1.039 1.177-2.609.133-3.648-1.172-1.178-2.61-2.483-3.654-3.654-1.172-1.305-1.957-1.172-3.389.132-6.65 5.865-16.042 10.172-24.782 10.172-20.608 0-36.257-17.214-36.257-37.43 0-20.088 15.649-37.695 36.257-37.695 14.345 0 23.477 5.478 23.477 5.478v18.259h-14.997c-1.437 0-2.482 1.045-2.482 2.35v4.825c0 1.432 1.045 2.477 2.482 2.477h22.559c1.305 0 2.35-1.172 2.35-2.477V74.159c0-.652-.52-1.697-1.045-2.09 0 0-13.3-8.607-32.211-8.607-26.086 0-47.087 20.736-47.087 46.822 0 26.086 21.001 47.087 47.087 47.087M896.6304 108.7195l-31.432 43.56c-1.045 1.697 0 3.787 2.09 3.787h6.13c.912 0 1.692-.652 2.084-1.178l26.346-36.384 26.347 36.384c.392.526 1.171 1.178 2.083 1.178h6.131c2.09 0 3.135-2.09 2.09-3.787l-31.825-43.427v-41.609c0-1.305-1.172-2.477-2.476-2.477h-5.086c-1.437 0-2.482 1.172-2.482 2.477zM977.7055 134.0417c1.537 0 2.87 1.329 2.87 2.952 0 1.537-1.333 2.811-2.87 2.811h-4.719v-5.763zm-8.512 8.688c0 .289.231.547.551.547h8.282c3.476 0 6.31-2.78 6.31-6.224 0-2.663-1.763-4.837-4.285-5.85l3.969-7.354c.203-.379 0-.841-.493-.841h-3.042c-.258 0-.403.145-.461.262l-3.852 7.671h-3.214v-7.382c0-.289-.262-.551-.551-.551h-2.663c-.32 0-.551.262-.551.551z"></path>
        <path fill="#fff" d="M976.7672 152.7742c-10.827 0-19.632-8.805-19.632-19.632 0-10.826 8.805-19.632 19.632-19.632 10.823 0 19.628 8.806 19.628 19.632 0 10.827-8.805 19.632-19.628 19.632m0-42.869c-12.813 0-23.237 10.424-23.237 23.237 0 12.813 10.424 23.237 23.237 23.237 12.809 0 23.233-10.424 23.233-23.237 0-12.813-10.424-23.237-23.233-23.237"></path>
        <g clip-path="url(#b)">
            <g clip-path="url(#c)" opacity=".30000299">
                <path fill="url(#d)" d="M217.68 93.403c-.313-.29-1.164-.907-2.338-.405l-18.276 7.832c-5.46 2.341-8.869 7.69-8.682 13.629l1.59 50.902c.051 1.639 1.314 2.005 1.854 2.086.106.016.24.029.392.029.632 0 1.563-.23 1.992-1.477l24.047-70.295c.413-1.208-.267-2.011-.579-2.301m-1.469-13.833L166.09 25.532c-1.086-1.165-2.258-.658-2.715-.385-.456.274-1.459 1.072-.938 2.577l22.059 63.899v.002c.54 1.566 1.675 2.799 3.189 3.47.77.341 1.582.511 2.391.511.789 0 1.577-.161 2.328-.483l1.873-.803.002-.001 18.272-7.831h.002l4.368-1.873c.936-.401 1.201-1.217 1.274-1.549.029-.139.05-.382.027-.66-.543-1.012-1.207-1.97-2.011-2.836m-66.608-67.315c-.336-.978-1.145-1.297-1.477-1.388-.339-.092-1.195-.232-1.984.432l-9.004 7.575c-.003.003-.006.007-.009.01L85.933 61.953c-.877.741-.809 1.692-.737 2.069.071.376.355 1.292 1.444 1.659l2.817.95s.004.001.007.001l83.455 28.121.009.003 1.635.551c1.171.391 1.955-.241 2.24-.53.289-.29.914-1.088.515-2.244zm-16.451-1.349c-.2-.45-.832-1.49-2.3-1.262l-61.711 9.023-20.696 3.026c-.339.049-.663.145-.994.219-.81.292-1.18.936-1.296 1.244-.139.358-.375 1.289.367 2.175l7.943 9.46 17.58 20.932.006.009 1.318 1.571c.785.933 1.884 1.506 3.099 1.611.133.011.268.017.401.017 1.07 0 2.095-.373 2.925-1.071l1.58-1.328v-.001l51.203-43.075c1.125-.953.777-2.1.575-2.55M41.256 30.075c-.749-.895-1.717-.814-2.097-.733-.352.071-1.147.362-1.541 1.278-.062.176-.146.34-.202.519l-25.23 81.948c-.441 1.43.489 2.208.908 2.476.235.148.676.372 1.21.372.431 0 .924-.145 1.419-.592l47.888-43.252.002-.001 2.34-2.114c2.81-2.538 3.103-6.795.67-9.695l-2.483-2.957zM11.921 130.628c.177 1.307.956 2.394 2.135 2.983l13.553 6.776 57.643 28.821c.572.287 1.174.428 1.77.428.828 0 1.644-.271 2.351-.804 1.216-.918 1.773-2.36 1.492-3.857v-.001L74.848 79.539c-.384-2.042-1.948-2.777-2.606-2.998-.647-.22-2.34-.589-3.881.804l-47.887 43.253s-.003.003-.005.004l-7.29 6.584c-.977.883-1.435 2.138-1.258 3.442m9.848 19.403l46.35 57.839c.805 1 1.734 1.859 2.752 2.578.153.026.291.041.398.041.037 0 .07-.002.07-.002.364-.018 1.199-.147 1.747-.988l11.071-16.99 3.065-4.706c1.228-1.884 1.576-4.115.99-6.285-.59-2.173-2.022-3.922-4.035-4.929l-2.08-1.039-.013-.006-57.643-28.821c-1.413-.707-2.336.169-2.667.578-.332.41-.993 1.496-.005 2.73m60.216 61.2c.209.314.767.976 1.761.976.138 0 .288-.013.445-.042l9.628-1.768 63.338-11.634c1.593-.296 1.776-1.587 1.778-2.127.002-.542-.161-1.837-1.758-2.15l-8.915-1.747-44.233-8.673c-3.182-.629-6.393.727-8.168 3.452l-2.702 4.147-.005.008-3.063 4.702-8.118 12.461v.001c-.708 1.083-.228 2.035.012 2.394m91.428-106.638c-.141-.708-.694-2.431-2.746-3.126L87.189 73.339c-2.032-.676-3.511.338-4.052.808-.541.471-1.759 1.796-1.36 3.914l.033.171v.001l1.874 9.994 13.91 74.197c.386 2.056 1.794 3.689 3.771 4.371.628.217 1.267.321 1.901.321 1.359 0 2.685-.49 3.756-1.428l64.934-57.036c.001 0 .001 0 .001-.001l.121-.106c1.632-1.434 1.478-3.242 1.335-3.952m6.826 87.198c1.167.232 1.994-.29 2.383-.623.39-.331 1.041-1.065 1.004-2.256l-2.278-72.893c-.05-1.626-1.213-2.304-1.711-2.519-.498-.214-1.786-.6-3.005.472l-64.926 57.03c-.004.004-.008.006-.012.009l-2.489 2.187c-1.202 1.055-1.009 2.363-.87 2.878.138.512.63 1.74 2.197 2.046l2.11.414 45.899 8.999s.008.002.012.004zm37.881-79.598c-3.367 9.857-6.586 19.404-10.471 29.076-.24.599-.342 1.156-.385 1.691-.684.466-1.303 1.121-1.78 2.052-3.919 7.645-5.676 16.515-8.853 24.53-3.44 8.68-4.94 17.847-9.324 26.008-.434-.067-.87-.13-1.312-.122-3.809.068-7.259 1.192-10.591 2.997-1.851 1.003-3.595 2.181-5.454 3.163-.604-.283-1.27-.494-2.034-.566-8.423-.786-17.522 3.956-26.015 4.827-4.694.481-9.625.622-14.18 2.008-4.175 1.27-7.852 3.4-12.197 4.217-.026.005-.047.016-.072.022-1.242-1.441-3.148-2.278-5.538-1.643-17.078 4.539-36.581 14.974-49.51-2.229-.434-.578-.933-1.012-1.457-1.374.914-1.87.817-4.104-1.308-5.895-8.525-7.181-16.013-15.341-21.797-24.898-.193-.32-.413-.589-.636-.849-.14-.58-.354-1.169-.735-1.769-4.359-6.858-9.79-13.155-15.373-19.043-4.73-4.986-11.034-8.796-12.975-15.745-.249-.892-.641-1.623-1.132-2.206.608-.864.967-1.966.838-3.377-.595-6.581-.252-13.502.941-20.013 1.121-6.116 4.702-11.096 6.211-16.99.304-1.192.228-2.256-.079-3.191 1.551-5.611 3.998-11.197 5.938-16.632 1.172-3.282 2.04-6.744 3.557-9.88 1.406-2.909 3.142-5.398 3.924-8.573.549-2.226-.14-4.051-1.401-5.298 1.497-4.11 3.056-8.193 4.617-12.307 2.425-6.388 3.423-12.95 7.904-18.267.459-.545.775-1.115 1.001-1.692 1.358.496 2.942.465 4.571-.405 3.588-1.915 6.297-3.993 10.439-4.622 3.923-.595 8.031-.344 11.979-.33.719.002 1.345-.131 1.924-.325.505.06 1.035.07 1.594-.005 19.011-2.561 38.11-8.109 57.2-9.645 1.28-.102 2.345-.677 3.235-1.441 3.932-.14 8.046.194 11.726.194.424 0 .817-.047 1.193-.118 6.847 2.695 12.998 4.7 18.577 10.126 6.206 6.039 12.033 12.449 18.282 18.447.18.454.414.912.763 1.373 5.78 7.627 11.825 15.192 18.665 21.905 5.943 5.832 12.955 10.43 17.242 17.743.678 1.156 1.562 1.901 2.528 2.326.233.887.664 1.767 1.485 2.574 9.243 9.088 1.682 24.193-1.725 34.171"></path>
            </g>
        </g>
    </g>
    <g clip-path="url(#e)" transform="matrix(1.33333 0 0 -1.33333 0 294.444)">
        <path fill="url(#f)" d="M62.583 212.291l-11.044-13.782s-.003-.001-.004-.002l-18.442-23.016-27.51-34.328c-4.282-5.339-5.634-12.436-3.62-18.978l13.17-42.767 8.99-29.202c.001-.005.003-.01.005-.015l6.519-21.169c.012-.039.034-.072.047-.111.312-1.18 1.588-5.181 4.975-8.696.309-.381.63-.755 1.004-1.084.224-.198.488-.334.73-.506 2.636-2.115 6.223-3.798 11.109-4.117l92.307-13.497c.998-.145 1.994-.216 2.988-.216 5.696 0 11.193 2.359 15.128 6.603l62.479 67.36c5.174 5.578 6.859 13.517 4.397 20.716l-3.938 11.508v.001L195.07 185.34c-.001.002-3.694 15.053-15.335 16.469l-1.533.281-.004.001-17.187 3.158-66.713 12.254-.014.001-11.866 2.18c-1.253.232-2.509.345-3.755.345-6.193 0-12.124-2.798-16.08-7.738m83.838-42.51l-54.424 38.328c-.733.515-.658 1.168-.465 1.624.165.397.499.835 1.165.835.097 0 .202-.009.314-.029l26.129-4.799 57.801-10.618c1.044-.194 2.038-.525 2.987-.944.006-.016.023-.033.03-.048.075-.215.11-.536-.155-.85l-.117-.138c-.001-.002-.004-.004-.006-.006l-13.052-15.471-4.998-5.923c-2.247-2.664-5.431-4.054-8.659-4.054-2.264 0-4.55.684-6.55 2.093m-72.058 39.697c1.503.463 3.095.205 4.381-.699l60.886-42.878c1.585-1.117 2.365-2.93 2.087-4.851-.282-1.92-1.547-3.434-3.39-4.05l-2.204-.738-.002-.001-31.945-10.7L50 127.414c-1.892-.635-3.847-.152-5.236 1.285-1.382 1.44-1.785 3.414-1.081 5.281l7.971 21.049 13.518 35.693c.001.003.002.006.002.01l5.95 15.711v-.002c.558 1.47 1.738 2.577 3.239 3.037m-49.845-83.211l-10.627 4.612-.544.236c-1.201.521-2.07 1.548-2.384 2.818-.315 1.271-.025 2.585.795 3.606l26.863 33.524 18.446 23.017c.097.124.287.358.615.358.136 0 .297-.042.487-.149.629-.361.467-.829.387-1.043l-13.523-35.709-10.188-26.904c-.758-2.001-2.261-3.56-4.233-4.392-.972-.411-1.994-.617-3.016-.617-1.043 0-2.086.214-3.078.643m188.456-22.894l-17.024 18.026-28.103 29.757c-.003.003-.006.005-.009.008l-2.342 2.48-.002.001c-2.97 3.146-3.109 8.011-.317 11.319l2.526 2.993 17.396 20.617c.204.235.44.304.639.304.063 0 .123-.007.179-.017.036-.006.078-.037.118-.048.501-.826.943-1.697 1.263-2.632l27.876-81.48c.282-.827-.153-1.301-.565-1.55-.202-.121-.451-.221-.721-.221-.29 0-.605.115-.914.443m-95.661-58.414L61.63 97.204l-11.584 10.87c-1.982 1.859-2.819 4.554-2.238 7.209.581 2.654 2.464 4.755 5.041 5.616l53.577 17.947 31.946 10.7c.81.272 1.636.404 2.456.404 1.821 0 3.597-.659 5.024-1.917 2.069-1.821 2.984-4.524 2.449-7.225l-10.388-52.173-7.88-39.582c-.552-2.764-2.483-4.928-5.167-5.788-.785-.253-1.584-.376-2.373-.376-1.895 0-3.73.714-5.18 2.07m20.412-4.925c-.465.333-1.952 1.59-1.509 3.812l16.562 83.186 2.466 12.388v.002l.998 5.013.002.001c.279 1.413 1.275 2.494 2.658 2.893.36.104.722.154 1.077.154 1.017 0 1.985-.415 2.718-1.191l.17-.179 53.992-57.17c.798-.843 1.161-1.985.993-3.133-.166-1.15-.836-2.143-1.837-2.727l-20.19-11.768-54.001-31.473c-.675-.392-1.315-.531-1.885-.531-1.083 0-1.907.503-2.214.723M30.895 52.29l-6.483 21.056-15.525 50.428c-.136.437.059.729.248.899.13.115.319.23.561.23.11 0 .23-.024.361-.081l15.039-6.525c3.282-1.425 5.48-4.656 5.597-8.232l.203-6.182c0-.005-.001-.011-.001-.017v-.001l1.69-51.303c.007-.235.005-.737-.723-.861-.073-.011-.14-.016-.202-.016-.551 0-.702.407-.765.605m11.876-28.373c-.769.522-1.474 1.128-2.121 1.795-.037.155-.106.3-.11.463l-.877 26.628c-.002.005 0 .009 0 .014l-1.688 51.287c-.044 1.435.964 2.051 1.4 2.247.443.197 1.568.552 2.618-.433l33.773-31.689 36.688-34.424.003-.002 5.126-4.81c1.015-.951.778-2.074.628-2.512-.151-.437-.648-1.472-2.034-1.605l-27.762-2.661-15.276-1.463-.005-.002-29.978-2.874c-.016-.001-.033-.002-.049-.002-.116 0-.222.035-.336.043M206.979 69.62h.001l-.001-.002zM148.081 9.588c-.184.013-.444.085-.641.356l-3.018 4.171c-.003.004-.005.01-.009.014l-7.591 10.491c-.536.75-.728 1.66-.535 2.562.191.91.74 1.668 1.543 2.136l7.559 4.406.002.001 19.367 11.287 35.411 20.637c.191.114.652.38 1.115-.213.465-.593.099-.973-.057-1.136L148.768 9.852c-.203-.214-.439-.267-.619-.267-.024 0-.047.001-.068.003m-10.233-.974l-64.077 9.369c-.245.036-.759.11-.739.876.019.765.53.818.781.842l7.556.724 42.603 4.083c.216.021.433.031.65.031 2.187 0 4.28-1.053 5.575-2.844h.002l.887-1.226c.003-.005.003-.009.007-.014l.002-.001 7.581-10.476c.224-.308.237-.63.038-.956-.168-.28-.404-.42-.708-.42-.051 0-.104.004-.158.012">
        </path>
    </g>
</svg>