<svg version="1.1" viewBox="0 0 515.4033 97.582896" xml:space="preserve"
    id="svg8" xmlns="http://www.w3.org/2000/svg" xmlns:svg="http://www.w3.org/2000/svg">
    <defs id="defs12">
        <rect x="429.04269" y="343.90192" width="1492.9012" height="145.72311" id="rect1838-6" />
    </defs>
    <g transform="translate(218.10109,10.366473)" id="g6">
        <g aria-label="Reporting Tools" transform="matrix(0.26458333,0,0,0.26458333,-211.38773,-40.549149)"
            id="text1836"
            style="font-size:128px;font-family:Consolas;-inkscape-font-specification:Consolas;letter-spacing:24px;white-space:pre;shape-inside:url(#rect1838-6);fill:#1f4690;stroke-width:3.77953;stroke-linejoin:bevel">
            <path
                d="m 454.23047,427.206 v 16.125 h 4.625 q 4.625,0 6.5625,1.8125 2,1.75 2,4.625 0,2.8125 -2,4.625 -1.9375,1.75 -6.5625,1.75 h -19.4375 q -4.625,0 -6.625,-1.75 -1.9375,-1.8125 -1.9375,-4.6875 0,-2.8125 2,-4.5625 2,-1.8125 6.5625,-1.8125 h 2 v -50.125 h -2 q -4.625,0 -6.625,-1.75 -1.9375,-1.8125 -1.9375,-4.6875 0,-2.875 1.9375,-4.625 2,-1.8125 6.625,-1.8125 l 29,0.0625 q 13.5625,0 21,6.75 7.5,6.6875 7.5,16.3125 0,6 -3.5,10.9375 -3.5,4.875 -10.5625,8.6875 4.0625,3.5625 8.6875,9.125 2.875,3.5625 7.75,11.125 4.875,0 6.4375,1 2.8125,1.9375 2.8125,5.4375 0,2.8125 -1.9375,4.625 -1.9375,1.75 -6.5625,1.75 h -7.3125 q -15.5625,-24.0625 -25.8125,-28.9375 z m 0,-12.8125 h 10 q 5.5625,0 9.9375,-1.6875 5.875,-2.25 7.875,-4.75 2.0625,-2.5 2.0625,-4.9375 0,-3.625 -3.875,-6.6875 -3.875,-3.125 -11.3125,-3.125 h -14.6875 z"
                style="font-weight:bold;font-family:monospace;-inkscape-font-specification:'monospace Bold';fill:#1f4690;fill-opacity:0.65"
                id="path4443" />
            <path
                d="m 600.41797,434.2685 h -52.5625 q 2,5 7.0625,8.0625 5.125,3.0625 13.8125,3.0625 7.125,0 18.9375,-3.0625 4.875,-1.25 6.75,-1.25 2.5625,0 4.3125,1.8125 1.75,1.8125 1.75,4.5625 0,2.5 -1.875,4.25 -2.5,2.3125 -12.1875,4.4375 -9.6875,2.0625 -18.625,2.0625 -15.375,0 -24.625,-8.6875 -9.1875,-8.6875 -9.1875,-21.375 0,-13.5 9.9375,-21.9375 10,-8.5 23,-8.5 7.8125,0 14.3125,2.75 6.5625,2.75 9.75,5.9375 4.5,4.625 7.4375,11.4375 2,4.75 2,11 z m -14.1875,-12.8125 q -2.9375,-5.5 -7.6875,-8.1875 -4.75,-2.75 -11.3125,-2.75 -6.5,0 -11.25,2.75 -4.75,2.6875 -7.75,8.1875 z"
                style="font-weight:bold;font-family:monospace;-inkscape-font-specification:'monospace Bold';fill:#1f4690;fill-opacity:0.65"
                id="path4445" />
            <path
                d="m 653.16797,449.081 v 21 h 7.6875 q 4.625,0 6.5625,1.75 2,1.8125 2,4.6875 0,2.8125 -2,4.5625 -1.9375,1.8125 -6.5625,1.8125 h -22.6875 q -4.625,0 -6.625,-1.8125 -1.9375,-1.75 -1.9375,-4.5625 0,-2.875 2,-4.6875 2,-1.75 6.5625,-1.75 h 2.1875 v -57.875 h -2.1875 q -4.625,0 -6.625,-1.75 -1.9375,-1.8125 -1.9375,-4.6875 0,-2.8125 1.9375,-4.5625 2,-1.8125 6.625,-1.8125 h 15 v 4.375 q 4.5,-3.0625 9.3125,-4.5625 4.8125,-1.5 9.875,-1.5 13.125,0 22.375,8.9375 9.25,8.875 9.25,20.375 0,12.6875 -10.9375,20.9375 -9.125,6.875 -20.5625,6.875 -4.9375,0 -9.75,-1.4375 -4.8125,-1.4375 -9.5625,-4.3125 z m 38,-22 q 0,-2.6875 -2.125,-6.8125 -2.125,-4.1875 -6.5625,-6.9375 -4.375,-2.8125 -10.3125,-2.8125 -9.5625,0 -15.1875,7.1875 -3.8125,4.9375 -3.8125,9.5 0,5.125 5.4375,10 5.5,4.8125 13.5625,4.8125 8.125,0 13.5625,-4.8125 5.4375,-4.8125 5.4375,-10.125 z"
                style="font-weight:bold;font-family:monospace;-inkscape-font-specification:'monospace Bold';fill:#1f4690;fill-opacity:0.65"
                id="path4447" />
            <path
                d="m 803.16797,428.831 q 0,7.375 -4.125,14.3125 -4.0625,6.875 -12.1875,11 -8.0625,4.0625 -16.875,4.0625 -8.75,0 -16.75,-4 -8,-4.0625 -12.1875,-11 -4.1875,-6.9375 -4.1875,-14.5 0,-7.6875 4.25,-15.0625 4.25,-7.4375 12.1875,-11.6875 8,-4.25 16.6875,-4.25 8.75,0 16.8125,4.375 8.125,4.3125 12.25,11.6875 4.125,7.3125 4.125,15.0625 z m -12.8125,0.0625 q 0,-6.1875 -4.4375,-11.375 -6.0625,-7 -15.9375,-7 -8.6875,0 -14.5,5.5625 -5.8125,5.5625 -5.8125,12.875 0,6 5.875,11.25 5.875,5.1875 14.4375,5.1875 8.625,0 14.5,-5.1875 5.875,-5.25 5.875,-11.3125 z"
                style="font-weight:bold;font-family:monospace;-inkscape-font-specification:'monospace Bold';fill:#1f4690;fill-opacity:0.65"
                id="path4449" />
            <path
                d="m 868.04297,399.3935 v 8 q 8.0625,-5.8125 12.6875,-7.75 4.6875,-1.9375 8.75,-1.9375 6.25,0 12.125,4.625 4,3.125 4,6.375 0,2.75 -1.9375,4.6875 -1.875,1.875 -4.5625,1.875 -2.375,0 -5,-2.375 -2.625,-2.375 -4.6875,-2.375 -2.6875,0 -8.0625,3.375 -5.3125,3.375 -13.3125,10.125 v 19.3125 h 18.25 q 4.625,0 6.5625,1.8125 2,1.75 2,4.625 0,2.8125 -2,4.625 -1.9375,1.75 -6.5625,1.75 h -38.6875 q -4.625,0 -6.625,-1.75 -1.9375,-1.8125 -1.9375,-4.6875 0,-2.8125 1.9375,-4.5625 2,-1.8125 6.625,-1.8125 h 7.625 v -31.125 h -4.625 q -4.625,0 -6.625,-1.75 -1.9375,-1.8125 -1.9375,-4.6875 0,-2.8125 1.9375,-4.5625 2,-1.8125 6.625,-1.8125 z"
                style="font-weight:bold;font-family:monospace;-inkscape-font-specification:'monospace Bold';fill:#1f4690;fill-opacity:0.65"
                id="path4451" />
            <path
                d="m 968.35547,412.206 v 25.6875 q 0,4.125 1.6875,5.4375 2.625,2.0625 9.375,2.0625 9.8125,0 18.125,-4.1875 3.18753,-1.625 5.00003,-1.625 2.5,0 4.3125,1.875 1.875,1.875 1.875,4.5625 0,2.5 -2,4.3125 -3.0625,2.9375 -12.12503,5.4375 -9,2.4375 -15.1875,2.4375 -11.9375,0 -17.9375,-5.125 -5.9375,-5.1875 -5.9375,-12.6875 V 412.206 h -4.625 q -4.625,0 -6.625,-1.75 -1.9375,-1.8125 -1.9375,-4.6875 0,-2.8125 1.9375,-4.5625 2,-1.8125 6.625,-1.8125 h 4.625 V 387.831 q 0,-4.625 1.75,-6.5625 1.8125,-2 4.6875,-2 2.8125,0 4.5625,2 1.8125,1.9375 1.8125,6.5625 v 11.5625 h 23.6875 q 4.625,0 6.5625,1.8125 2.00003,1.75 2.00003,4.625 0,2.8125 -2.00003,4.625 -1.9375,1.75 -6.5625,1.75 z"
                style="font-weight:bold;font-family:monospace;-inkscape-font-specification:'monospace Bold';fill:#1f4690;fill-opacity:0.65"
                id="path4453" />
            <path
                d="m 1076.918,375.081 v 13.5625 h -15.25 V 375.081 Z m 1.75,24.3125 v 43.9375 h 15.375 q 4.625,0 6.5625,1.8125 2,1.75 2,4.625 0,2.8125 -2,4.625 -1.9375,1.75 -6.5625,1.75 h -43.5625 q -4.625,0 -6.625,-1.75 -1.9375,-1.8125 -1.9375,-4.6875 0,-2.8125 1.9375,-4.5625 2,-1.8125 6.625,-1.8125 h 15.375 v -31.125 h -10.3125 q -4.5625,0 -6.5625,-1.75 -2,-1.8125 -2,-4.6875 0,-2.8125 1.9375,-4.5625 2,-1.8125 6.625,-1.8125 z"
                style="font-weight:bold;font-family:monospace;-inkscape-font-specification:'monospace Bold';fill:#1f4690;fill-opacity:0.65"
                id="path4455" />
            <path
                d="m 1160.168,399.3935 v 4.3125 q 3.5,-3 7.6875,-4.5 4.25,-1.5 9.1875,-1.5 11.375,0 18,7.0625 5.25,5.625 5.25,14.75 v 23.8125 q 4.0625,0 6,1.8125 1.9375,1.75 1.9375,4.625 0,2.8125 -2,4.625 -1.9375,1.75 -6.5625,1.75 h -11.5625 q -4.625,0 -6.625,-1.75 -1.9375,-1.8125 -1.9375,-4.6875 0,-2.8125 1.9375,-4.5625 1.9375,-1.8125 6,-1.8125 v -24.1875 q 0,-4.1875 -2.25,-6.125 -2.9375,-2.5 -8.8125,-2.5 -4.4375,0 -7.8125,1.75 -3.3125,1.6875 -8.4375,7.25 v 23.8125 q 4.9375,0 6.375,0.9375 3.0625,1.875 3.0625,5.5 0,2.8125 -2,4.625 -1.9375,1.75 -6.5625,1.75 h -14.5625 q -4.625,0 -6.625,-1.75 -1.9375,-1.8125 -1.9375,-4.6875 0,-3.5 3,-5.4375 1.5,-0.9375 6.4375,-0.9375 v -31.125 q -4.0625,0 -6,-1.8125 -1.9375,-1.8125 -1.9375,-4.625 0,-2.8125 1.9375,-4.5625 2,-1.8125 6.625,-1.8125 z"
                style="font-weight:bold;font-family:monospace;-inkscape-font-specification:'monospace Bold';fill:#1f4690;fill-opacity:0.65"
                id="path4457" />
            <path
                d="m 1288.043,403.206 v -3.8125 h 15 q 4.625,0 6.5625,1.8125 2,1.75 2,4.625 0,2.8125 -2,4.625 -1.9375,1.75 -6.5625,1.75 h -2.1875 v 46.625 q 0,6.75 -2.875,11.75 -2.8125,5.0625 -8.6875,8.6875 -5.875,3.625 -13.25,3.625 h -14.5 q -4.625,0 -6.625,-1.8125 -1.9375,-1.75 -1.9375,-4.5625 0,-2.875 1.9375,-4.6875 2,-1.75 6.625,-1.75 h 14.125 q 5.875,0 9.125,-3.1875 3.25,-3.1875 3.25,-8.0625 v -6.25 q -4.25,2.75 -8.6875,4.125 -4.375,1.375 -9,1.375 -13.0625,0 -21.875,-8.6875 -8.8125,-8.75 -8.8125,-21.5625 0,-12.875 8.8125,-21.5625 8.8125,-8.75 21.875,-8.75 4.875,0 9.25,1.4375 4.4375,1.375 8.4375,4.25 z m -0.062,24.5625 q 0,-7.0625 -5.25,-12.25 -5.1875,-5.1875 -12.5,-5.1875 -7.3125,0 -12.5625,5.1875 -5.1875,5.1875 -5.1875,12.25 0,7.125 5.1875,12.3125 5.25,5.125 12.5625,5.125 7.3125,0 12.5,-5.125 5.25,-5.1875 5.25,-12.3125 z"
                style="font-weight:bold;font-family:monospace;-inkscape-font-specification:'monospace Bold';fill:#1f4690;fill-opacity:0.65"
                id="path4459" />
            <path
                d="m 1481.793,393.206 v 50.125 h 8.625 q 4.625,0 6.5625,1.8125 2,1.75 2,4.625 0,2.8125 -2,4.625 -1.9375,1.75 -6.5625,1.75 h -30 q -4.625,0 -6.625,-1.75 -1.9375,-1.8125 -1.9375,-4.6875 0,-2.8125 1.9375,-4.5625 2,-1.8125 6.625,-1.8125 h 8.5625 v -50.125 h -13.875 v 12.125 q 0,4.625 -1.8125,6.625 -1.75,1.9375 -4.625,1.9375 -2.8125,0 -4.625,-1.9375 -1.75,-2 -1.75,-6.625 v -25 l 66.375,0.0625 v 24.9375 q 0,4.625 -1.8125,6.625 -1.75,1.9375 -4.625,1.9375 -2.8125,0 -4.625,-1.9375 -1.75,-2 -1.75,-6.625 v -12.125 z"
                style="font-weight:bold;font-family:monospace;-inkscape-font-specification:'monospace Bold';fill:#1f4690;fill-opacity:0.65"
                id="path4461" />
            <path
                d="m 1609.668,428.831 q 0,7.375 -4.125,14.3125 -4.0625,6.875 -12.1875,11 -8.0625,4.0625 -16.875,4.0625 -8.75,0 -16.75,-4 -8,-4.0625 -12.1875,-11 -4.1875,-6.9375 -4.1875,-14.5 0,-7.6875 4.25,-15.0625 4.25,-7.4375 12.1875,-11.6875 8,-4.25 16.6875,-4.25 8.75,0 16.8125,4.375 8.125,4.3125 12.25,11.6875 4.125,7.3125 4.125,15.0625 z m -12.8125,0.0625 q 0,-6.1875 -4.4375,-11.375 -6.0625,-7 -15.9375,-7 -8.6875,0 -14.5,5.5625 -5.8125,5.5625 -5.8125,12.875 0,6 5.875,11.25 5.875,5.1875 14.4375,5.1875 8.625,0 14.5,-5.1875 5.875,-5.25 5.875,-11.3125 z"
                style="font-weight:bold;font-family:monospace;-inkscape-font-specification:'monospace Bold';fill:#1f4690;fill-opacity:0.65"
                id="path4463" />
            <path
                d="m 1710.4805,428.831 q 0,7.375 -4.125,14.3125 -4.0625,6.875 -12.1875,11 -8.0625,4.0625 -16.875,4.0625 -8.75,0 -16.75,-4 -8,-4.0625 -12.1875,-11 -4.1875,-6.9375 -4.1875,-14.5 0,-7.6875 4.25,-15.0625 4.25,-7.4375 12.1875,-11.6875 8,-4.25 16.6875,-4.25 8.75,0 16.8125,4.375 8.125,4.3125 12.25,11.6875 4.125,7.3125 4.125,15.0625 z m -12.8125,0.0625 q 0,-6.1875 -4.4375,-11.375 -6.0625,-7 -15.9375,-7 -8.6875,0 -14.5,5.5625 -5.8125,5.5625 -5.8125,12.875 0,6 5.875,11.25 5.875,5.1875 14.4375,5.1875 8.625,0 14.5,-5.1875 5.875,-5.25 5.875,-11.3125 z"
                style="font-weight:bold;font-family:monospace;-inkscape-font-specification:'monospace Bold';fill:#1f4690;fill-opacity:0.65"
                id="path4465" />
            <path
                d="m 1784.418,375.081 v 68.25 h 15.375 q 4.625,0 6.5625,1.8125 2,1.75 2,4.625 0,2.8125 -2,4.625 -1.9375,1.75 -6.5625,1.75 h -43.5625 q -4.625,0 -6.625,-1.75 -1.9375,-1.8125 -1.9375,-4.6875 0,-2.8125 1.9375,-4.5625 2,-1.8125 6.625,-1.8125 h 15.375 v -55.4375 h -10.3125 q -4.5625,0 -6.5625,-1.75 -2,-1.8125 -2,-4.6875 0,-2.8125 1.9375,-4.5625 2,-1.8125 6.625,-1.8125 z"
                style="font-weight:bold;font-family:monospace;-inkscape-font-specification:'monospace Bold';fill:#1f4690;fill-opacity:0.65"
                id="path4467" />
            <path
                d="m 1892.668,414.3935 q -3.125,-1.9375 -6.5625,-2.875 -3.4375,-1 -7.1875,-1 -7.4375,0 -11.8125,2.4375 -1.9375,1.0625 -1.9375,2.3125 0,1.4375 2.625,2.8125 2,1 8.9375,1.9375 12.75,1.75 17.75,3.5 6.5625,2.3125 10.125,6.875 3.5625,4.5625 3.5625,9.625 0,6.875 -6.0625,11.5 -8.6875,6.6875 -22.5625,6.6875 -5.5625,0 -10.3125,-1 -4.6875,-0.9375 -8.625,-2.8125 -0.9375,0.8125 -2,1.25 -1.0625,0.4375 -2.1875,0.4375 -3,0 -4.8125,-1.9375 -1.75,-2 -1.75,-6.625 v -4.3125 q 0,-4.625 1.75,-6.5625 1.8125,-2 4.6875,-2 2.3125,0 3.875,1.3125 1.5625,1.25 2.4375,4.375 2.9375,2.5 7.0625,3.8125 4.125,1.25 9.5,1.25 8.8125,0 13.6875,-2.75 2.3125,-1.375 2.3125,-2.875 0,-2.5 -3.3125,-4.125 -3.3125,-1.625 -13.6875,-2.75 -15.4375,-1.625 -20.625,-6.25 -5.1875,-4.5625 -5.1875,-11.25 0,-6.875 5.8125,-11.4375 7.875,-6.25 20.625,-6.25 4.4375,0 8.5,0.875 4.125,0.8125 7.875,2.5625 1.1875,-0.875 2.1875,-1.3125 1.0625,-0.4375 1.9375,-0.4375 2.625,0 4.375,2 1.75,1.9375 1.75,6.5625 v 3.125 q 0,4.1875 -1,5.6875 -2,2.875 -5.4375,2.875 -2.3125,0 -4.0625,-1.4375 -1.75,-1.4375 -2.25,-3.8125 z"
                style="font-weight:bold;font-family:monospace;-inkscape-font-specification:'monospace Bold';fill:#1f4690;fill-opacity:0.65"
                id="path4469" />
        </g>
        <path
            d="m -90.676854,51.579731 c -4.7282,-0.76601 -9.487196,-2.7859 -10.817996,-4.5916 -0.66138,-0.89726 -0.90613,-3.8964 -0.43458,-5.3252 0.43666,-1.3231 1.0498,-1.2515 4.343496,0.50738 5.0172,2.6792 9.4532,3.6785 13.6,3.0637 5.616,-0.83249 8.8287,-4.2277 8.8287,-9.3303 0,-4.6232 -2.2499,-6.9089 -10.623,-10.792 -6.5766,-3.049803 -9.3918,-4.866603 -11.618,-7.497403 -4.850696,-5.733 -4.516496,-14.5799972 0.7465,-19.7639942 2.0037,-1.973799 4.1481,-3.125298 7.4754,-4.013998 3.0568,-0.816419 7.8493,-0.818199 11.146,-0.0041 3.0266,0.74738 5.9538,2.110399 6.8695,3.198698 0.65411,0.77735 0.72364,1.059699 0.72364,2.93909792 0,2.44969908 -0.30014,3.43649808 -1.0453,3.43649808 -0.29106,0 -1.6335,-0.582339 -2.9831,-1.294099 -3.8604,-2.03579908 -5.6339,-2.53209904 -9.0685,-2.53769904 -3.3668,-0.0054 -4.9687,0.42976996 -6.8395,1.85829994 -2.9418,2.2461981 -3.6078,7.0349961 -1.4347,10.3159963 1.3626,2.0572 3.382,3.4116 9.6826,6.4944 6.7775,3.3161 8.8405,4.5811 10.934,6.705 2.7488,2.788203 3.929,5.812403 3.929,10.068003 0,8.1359 -4.5857,13.856 -12.856,16.038 -2.3168,0.611 -8.2188,0.9047 -10.56,0.52547 z m 84.4819997,-0.04 c -2.1454,-0.31462 -5.3864997,-1.4558 -7.0891997,-2.4961 -1.4703,-0.89832 -3.9649,-3.2931 -4.9574,-4.7589 -0.99554,-1.4704 -2.1877,-4.6734 -2.7441,-7.3728 -0.47845,-2.321 -0.53589,-3.3215 -0.42742,-7.4439 0.14802,-5.625603 0.58689,-7.665403 2.4739,-11.498003 0.98716,-2.005 1.6316,-2.8997 3.2438,-4.5033 3.5158,-3.4972002 7.4473997,-5.0499002 12.8599997,-5.0789002 3.9482,-0.02111 5.8911,0.37627 8.7815,1.7960002 5.8147003,2.8562 8.8003003,8.5242 8.8098003,16.725003 0.003,2.9616 -0.006,3.006 -0.76992,3.7703 l -0.7734,0.7734 h -27.371 l 0.16122,2.1828 c 0.5144,6.9648 3.5299,10.861 9.2716997,11.981 4.01799996,0.78362 10.185,-0.007 14.293,-1.8318 2.8245003,-1.255 3.6051003,-0.87262 3.6051003,1.7661 0,2.3166 -0.35893,2.9806 -2.0415,3.7766 -4.1649003,1.9703 -12.08200034,2.9813 -17.3250003,2.2124 z m 13.808,-26.239 c -0.004,-1.771003 -0.57532,-4.352903 -1.3156,-5.946403 -1.5564,-3.3506 -4.2701,-5.0589 -8.4247,-5.3033 -6.1321,-0.36078 -10.4649997,3.2745 -11.7069997,9.8217 -0.48307,2.547203 -1.6847,2.287903 10.6009997,2.287903 h 10.848 l -0.002,-0.8599 z m 28.0800003,26.226 c -3.2008,-0.53164 -5.636,-2.2309 -6.9122,-4.8233 -1.437,-2.9189 -1.5669,-4.4646 -1.5772,-18.757 l -0.009,-12.898003 h -3.0017 c -3.7424,0 -3.9242,-0.13269 -3.9242,-2.8647 0,-2.9040002 0.0269,-2.9260002 3.6895,-3.0140002 l 3.104,-0.0745 0.0668,-4.894798 c 0.0818,-5.994997 -0.0236,-5.820797 3.5219,-5.820797 1.2867,0 2.6402,0.13703 3.0078,0.30451 l 0.66834,0.30451 0.14344,10.106995 5.424,0.06911 c 6.3436,0.08083 6.0854,-0.04061 6.0854,2.8626002 0,3.0699 0.12568,3.0075 -6.2177,3.0872 l -5.2917,0.06653 v 12.568003 c 0,11.669 0.036,12.672 0.50363,14.023 0.68561,1.981 1.1242,2.5881 2.3044,3.1902 1.3484,0.68791 3.8986,0.68135 5.9232,-0.0152 2.6427,-0.90922 2.7781,-0.80582 2.7781,2.1211 0,2.2776 -0.28485,3.0307 -1.356,3.5846 -1.8468,0.95503 -6,1.3621 -8.9308,0.87527 z m 30.527,0.13154 c -4.4386,-0.68851 -8.3956,-3.1487 -10.804,-6.7175 -4.2528,-6.3009 -4.7992,-18.954 -1.1562,-26.770003 2.952,-6.3333 8.4805,-9.7299002 15.846,-9.7352002 3.3599,-0.0024 5.9442,0.55368 8.5815,1.8466002 3.5364,1.7338 4.7046,3.6032 4.1908,6.7064 -0.40127,2.4232 -1.1088,2.5969 -3.4604,0.84946 -1.8965,-1.4093 -4.3108,-2.6432 -6.0082,-3.0706 -1.8493,-0.46566 -5.8504,-0.20938 -7.3677,0.47191 -3.0853,1.3854 -5.3454,4.842 -6.1737,9.4422 -0.35642,1.979403 -0.42865,3.444003 -0.32443,6.576903 0.19376,5.8245 1.1301,8.7664 3.6326,11.412 2.07,2.1887 3.3868,2.6722 7.2776,2.6722 2.9664,0 3.2876,-0.052 4.8889,-0.79077 0.94263,-0.43492 2.5852,-1.4159 3.6502,-2.18 2.8822,-2.0679 2.9772,-2.1054 3.5479,-1.4007 0.38333,0.47339 0.48075,1.0662 0.48075,2.9253 0,2.1545 -0.055,2.397 -0.72366,3.1917 -1.1438,1.3593 -3.5116,2.7307 -6.332,3.6674 -2.251,0.74759 -3.0295,0.87493 -5.7766,0.94493 -1.7462,0.0445 -3.5322,0.0255 -3.9688,-0.0422 z m 136.390004,-0.23048 c -6.5164,-1.4767 -10.289,-6.9339 -9.3419,-13.511 0.54898,-3.8107 2.7904,-6.8796 6.3243,-8.6592 3.732,-1.8794 7.5625,-2.5636 14.365,-2.566 l 4.6004,-0.002 -0.14489,-3.108903 c -0.0797,-1.7099 -0.3315,-3.7094 -0.55954,-4.4433 -0.55396,-1.783 -1.9378,-3.3416 -3.6562,-4.1181 -1.2548,-0.56696 -1.7723,-0.63282 -4.9724,-0.63282 -4.1145,0 -5.4152,0.33686 -9.8509,2.5511 -1.4162,0.70694 -2.7471,1.2854 -2.9577,1.2854 -0.66546,0 -1.1314,-0.71312 -1.308,-2.0022 -0.35798,-2.6119 0.5765,-3.9978 3.6656,-5.4361 6.6304,-3.0871002 16.204,-3.2542002 21.176,-0.36948 1.5262,0.88558 3.4902,3.0873 4.2664,4.7828 1.2882,2.8137 1.3938,4.3483 1.4038,20.389003 0.008,13.315 -0.0347,14.887 -0.41531,15.203 -0.57058,0.47354 -3.5324,0.63847 -4.6776,0.26048 -1.0381,-0.34262 -1.2478,-0.90869 -1.2478,-3.3689 v -1.4318 l -1.5886,1.3221 c -1.9982,1.6629 -3.5607,2.5813 -5.788,3.4021 -2.2425,0.82633 -6.6905,1.0437 -9.2921,0.45419 z m 8.9772,-5.9214 c 1.6224,-0.61648 3.4675,-1.8848 5.3764,-3.6957 l 1.5214,-1.4433 v -8.3386 l -2.1934,-0.1827 c -3.034,-0.25274 -8.6575,0.23644 -10.673,0.92845 -3.8136,1.3092 -5.7916,4.7084 -4.8801,8.3863 0.85929,3.4672 3.7407,5.2701 7.9137,4.9518 0.92197,-0.0703 2.2428,-0.34313 2.9353,-0.60624 z m 36.807,6.0174 c -3.2117,-0.53243 -5.8294,-2.4416 -7.0734,-5.1591 -1.2526,-2.7361 -1.3853,-4.488 -1.3953,-18.418 l -0.009,-12.898003 h -3.0277 c -2.8288,0 -3.0548,-0.03863 -3.4396,-0.58804 -0.47083,-0.67221 -0.56542,-3.4716 -0.15386,-4.5541002 0.25726,-0.67659 0.26787,-0.67868 3.4396,-0.67868 h 3.1816 v -5.012098 c 0,-4.87939704 0.0156,-5.02299704 0.58803,-5.423997 0.71483,-0.50069 4.8473,-0.57619 5.8762,-0.10736 l 0.66834,0.30451 0.1434,10.106995 5.424,0.06911 c 6.3436,0.08083 6.0854,-0.04061 6.0854,2.8626002 0,3.0699 0.12568,3.0075 -6.2177,3.0872 l -5.2917,0.06653 -0.0736,10.980003 c -0.0797,11.886 0.0981,14.617 1.0932,16.791 0.51388,1.1225 0.85852,1.4949 1.8094,1.9552 1.5196,0.73561 3.8338,0.75107 5.9023,0.0394 1.8561,-0.63859 2.406,-0.66183 2.6175,-0.11065 0.25268,0.65845 0.18748,3.9742 -0.0926,4.711 -0.63715,1.6758 -5.7767,2.6867 -10.054,1.9776 z m 26.447,0.0492 c -0.65484,-0.1217 -1.8151,-0.4603 -2.5783,-0.75245 -3.2939,-1.2608 -5.1176,-2.8966 -6.5132,-5.8421 -0.79846,-1.6852 -0.83032,-1.8846 -0.83032,-5.1976 0,-3.3399 0.0259,-3.4976 0.84529,-5.1622 1.4436,-2.9324 3.8629,-4.9696 7.4463,-6.2703 3.2613,-1.1838 4.9593,-1.4284 10.957,-1.5787 l 5.7547,-0.14415 v -2.690503 c 0,-5.0744 -1.1504,-7.5027 -4.2333,-8.9361 -0.90154,-0.41916 -1.9013,-0.5844 -4.1175,-0.68058 -3.7654,-0.16341 -6.2408,0.4305 -10.323,2.4766 -1.624,0.81403 -3.1736,1.4375 -3.4438,1.3855 -0.81518,-0.15699 -1.1947,-1.2513 -1.1027,-3.1793 0.1061,-2.2242 0.39915,-2.5641 3.5063,-4.0665 4.2346,-2.0476002 9.2868,-2.9308002 14.153,-2.4742002 7.0556,0.66211 10.636,3.3352002 12.219,9.1238002 0.54769,2.0022 0.57772,2.7351 0.68633,16.738003 0.0625,8.0542 0.039,15.041 -0.052,15.527 -0.2106,1.1226 -1.3471,1.5503 -3.7186,1.3993 -2.3229,-0.14792 -2.515,-0.36906 -2.515,-2.895 0,-1.1463 -0.0769,-2.0843 -0.171,-2.0843 -0.0941,0 -0.71914,0.51266 -1.3891,1.1393 -1.5239,1.4254 -4.0733,2.9323 -6.2011,3.6656 -1.8102,0.62383 -6.2765,0.89004 -8.3785,0.49939 z m 6.4998,-5.5918 c 2.2095,-0.40475 4.4271,-1.6634 6.6615,-3.7809 l 1.9199,-1.8196 v -8.3372 l -1.9761,-0.18517 c -4.4304,-0.41516 -10.145,0.36739 -12.493,1.7108 -2.324,1.3296 -3.2578,3.0496 -3.2578,6.0008 0,3.2982 1.6286,5.4295 4.801,6.283 1.7574,0.47275 2.3663,0.49074 4.3446,0.12834 z m -337.340004,5.0386 c -0.42416,-0.12684 -0.86882,-0.3845 -0.98813,-0.57257 -0.27248,-0.4295 -0.2894,-59.4949942 -0.0172,-59.9229943 0.75516,-1.1875997 6.2374,-1.1875997 6.9926,0 0.10987,0.1728001 0.20355,8.4103961 0.20817,18.3059911 l 0.008,17.9920032 1.517,-1.667 c 0.83434,-0.916883 4.2554,-4.689103 7.6024,-8.382803 4.1401,-4.569 6.4293,-6.8906002 7.1611,-7.2626002 0.85402,-0.43418 1.573,-0.5469 3.4885,-0.5469 3.0313,0 3.7701,0.25097 3.7701,1.2807002 0,0.42054 -0.25619,1.1081 -0.56932,1.5279 -0.31313,0.41981 -3.7867,3.9996 -7.7191,7.955 l -7.1498,7.191703 1.0841,1.4072 c 14.169,18.392 15.939,20.77 15.94,21.417 0.002,1.203 -0.58506,1.4215 -3.8213,1.4215 -2.3216,0 -3.0924,-0.0949 -3.6299,-0.44709 -0.58885,-0.38583 -5.1023,-6.1486 -15.06,-19.229 l -2.4906,-3.2715 -0.13949,11.209 c -0.0767,6.165 -0.16602,11.233 -0.19844,11.263 -0.59596,0.54299 -4.5505,0.76196 -5.9895,0.33165 z m 150,0.0995 c -1.2445,-0.34075 -1.1906,1.0468 -1.1906,-30.647003 0,-27.5419912 0.0354,-29.9949913 0.43722,-30.3289913 0.64593,-0.5364797 5.7512,-0.5090297 6.2776,0.03375 0.31935,0.32925 0.41733,2.4351001 0.574994,12.3589941 l 0.19005,11.9619972 1.4856,-1.3276 c 4.2396,-3.7887002 8.2988,-5.2622002 13.031,-4.7304002 6.0001,0.67428 9.8768,4.1552002 11.511,10.3360002 0.38975,1.474 0.46235,3.6658 0.55369,16.718004 l 0.10514,15.021 -1.0067,0.4206 c -1.1814,0.49363 -5.0877,0.40246 -5.7339,-0.13382 -0.33708,-0.27975 -0.40989,-2.322 -0.50398,-14.138 -0.0945,-11.865004 -0.17198,-14.026004 -0.55012,-15.340004 -0.91861,-3.1919 -2.0828,-4.8122 -4.2791,-5.9554 -1.0927,-0.56876 -1.6921,-0.69109 -3.4444,-0.70293 -3.1723,-0.02143 -4.9546,0.92824 -8.6603,4.6146 l -2.844304,2.8294 v 14.164004 c 0,12.62 -0.0458,14.202 -0.42042,14.513 -0.43482,0.36088 -4.5305,0.60739 -5.5327,0.33299 z m 48.366004,-0.60604 c -0.58838,-0.35876 -0.93314,-0.83801 -1.1308,-1.5719 -0.19598,-0.72783 -0.26181,-9.1397 -0.21188,-27.077003 0.0675,-24.2499942 0.1039,-26.0699932 0.53472,-26.7269932 0.80251,-1.224599 1.8649,-1.334799 11.312,-1.173999 11.003,0.18734 13.724,0.60703 18.389,2.836598 9.4274,4.5059979 14.003,13.5349942 13.54,26.7149942 -0.58246,16.560003 -8.4547,25.576003 -23.782,27.238003 -1.4131,0.15323 -5.997,0.27816 -10.186,0.27761 -7.0863,-8e-4 -7.6762,-0.037 -8.4636,-0.5171 z m 21.219,-6.5882 c 5.5977,-1.4884 9.3467,-4.7452 11.355,-9.8639 2.8608,-7.2929 2.6181,-17.814003 -0.5598,-24.2710032 -1.4481,-2.942199 -4.4694,-5.932098 -7.4875,-7.409497 -3.3105,-1.62049908 -4.9872,-1.90769908 -12.105,-2.07329908 l -6.1516,-0.14306 V 44.741291 l 6.4162,-0.12669 c 5.4328,-0.10727 6.7406,-0.21295 8.5328,-0.68952 z"
            stroke-width="0.26458" id="path2" style="fill:#1f4690;fill-opacity:1" />
        <path
            d="m -190.08885,78.543571 c -14.274,-3.0264 -26.185,-5.5611 -26.469,-5.6326 -0.28334,-0.0715 -0.74646,-0.36127 -1.0292,-0.64399 l -0.51404,-0.51403 v -3.2256 c 0,-3.112 0.0144,-3.2425 0.41356,-3.7064 l 0.41354,-0.48079 22.554,4.7666 c 12.405,2.6216 22.877,4.7666 23.271,4.7666 0.51873,0 0.82552,-0.11483 1.1068,-0.41426 l 0.3892,-0.41426 v -20.933 c 0,-20.031 -0.014,-20.96 -0.33139,-21.551 -0.18228,-0.33985 -0.52459,-0.75531 -0.76072,-0.92323 -0.26883,-0.19119 -4.7784,-1.221 -12.064,-2.7549 -6.3989,-1.3473 -11.854,-2.563 -12.124,-2.7016 -0.89987,-0.46344 -1.0323,-1.0099 -1.0323,-4.2614 v -2.9594 l 0.49225,-0.5449 0.4922,-0.5449 31.323,6.622 0.58173,0.62925 0.58171,0.62925 v 29.617 c 0,21.509 -0.055,29.738 -0.20079,30.058 -0.16767,0.36798 -0.6908,0.68263 -1.0521,0.63284 -0.0493,-0.006 -11.769,-2.4885 -26.043,-5.515 z m 34.232,0.8641 c -0.29632,-0.17259 -0.31323,-1.7775 -0.31323,-29.713 0,-33.007 0.10475,-30.474 -1.2874,-31.13 -0.60176,-0.28363 -13.822,-3.1698 -28.156,-6.1471 -0.94289,-0.19584 -1.0739,-0.27413 -1.0739,-0.6417 0,-0.37041 1.4336,-1.193 12.44,-7.1380002 l 12.44,-6.7194 3.9378,-0.34128 5.1012,1.0919 c 2.8057,0.60053996 9.0767,1.93699992 13.936,2.97 8.3659,1.7785 8.8758,1.9093 9.6135,2.466 1.4435,1.0893 1.3305,-1.5418 1.3302,30.9750002 -2e-4,27.289 -0.0192,29.075 -0.31324,29.656 -0.28372,0.561 -1.5469,1.2839 -13.527,7.7413 -7.2679,3.9174 -13.349,7.1201 -13.514,7.1171 -0.16469,-0.003 -0.4404,-0.0875 -0.61266,-0.18789 z m -42.197,-20.124 c -9.4014,-1.998 -17.516,-3.7268 -18.032,-3.8418 -0.61689,-0.13744 -1.1229,-0.39354 -1.4767,-0.74727 l -0.53817,-0.53817 v -3.2162 c 0,-3.1761 0.007,-3.2217 0.43934,-3.6555 0.24166,-0.24164 0.52357,-0.43934 0.62649,-0.43934 0.10296,0 6.6626,1.369 14.577,3.0421 10.054,2.1255 14.561,3.0079 14.958,2.9285 1.0422,-0.20844 1.1703,-0.65527 1.1703,-4.0837 0,-2.7285 -0.0378,-3.1145 -0.35799,-3.6582 -0.1969,-0.33427 -0.55934,-0.75541 -0.80545,-0.93587 -0.30748,-0.22545 -4.8436,-1.2548 -14.498,-3.2901 -7.7279,-1.6291 -14.31,-3.0458 -14.627,-3.1481 -0.31671,-0.10235 -0.77986,-0.42853 -1.0292,-0.72485 l -0.45334,-0.53876 v -11.99 c 0,-8.6884 0.0567,-12.098 0.20579,-12.381 0.26759,-0.50838 0.50007,-0.65376 1.0471,-0.65486 0.68615,-0.0016 11.143,2.2381 11.605,2.4854 0.22377,0.11976 0.56336,0.47438 0.7546,0.78804 0.30646,0.5026 0.34781,0.91454 0.3484,3.4705 7.4e-4,3.0998 -0.13469,3.7493 -0.81743,3.9206 -0.21929,0.05505 -1.2533,-0.07289 -2.2978,-0.28433 -1.0445,-0.21142 -2.0467,-0.33755 -2.2271,-0.28028 -0.18042,0.05726 -0.52203,0.31045 -0.75909,0.56262 -0.40949,0.43558 -0.43418,0.5942 -0.49367,3.174 -0.0847,3.6738 0.2091,4.8498 1.3665,5.4692 0.21676,0.116 6.8358,1.5735 14.709,3.2388 7.8732,1.6653 14.472,3.1121 14.665,3.2151 0.19234,0.10294 0.51706,0.39991 0.72159,0.65992 0.36804,0.46789 0.37186,0.59535 0.37186,12.401 0,13.467 0.0749,12.74 -1.3078,12.705 -0.4128,-0.0105 -8.4426,-1.6538 -17.844,-3.6518 z m -4.2958,-49.8420002 c -5.6494,-1.2724 -5.7277,-1.3018 -5.7277,-2.1527 0,-0.27123 0.10068,-0.57339 0.22373,-0.67148 0.12304,-0.09809 5.7066,-3.1319 12.408,-6.74180008 14.485,-7.80279992 12.639,-7.19309992 18.245,-6.02699992 1.9686,0.40948 3.7191,0.82223 3.89,0.91721 0.17096,0.09498 0.46715,0.1727 0.65823,0.1727 0.35738,0 1.0894,0.777 1.0894,1.1564 0,0.11723 -0.18276,0.38482 -0.40612,0.59465 -0.22333,0.20983 -5.8621,3.32419992 -12.531,6.9209 -10.665,5.7521 -12.238,6.5489002 -13.063,6.6186002 -0.69297,0.05848 -1.9449,-0.14749 -4.7867,-0.7875102 z"
            stroke-width="0.17899" id="path4" style="fill:#1f4690;fill-opacity:1" />
    </g>
</svg>